<?xml version="1.0" encoding="UTF-8" standalone="no"?>
<!DOCTYPE svg PUBLIC "-//W3C//DTD SVG 1.1//EN" "http://www.w3.org/Graphics/SVG/1.1/DTD/svg11.dtd">
<svg version="1.1" xmlns="http://www.w3.org/2000/svg" xmlns:xlink="http://www.w3.org/1999/xlink" preserveAspectRatio="xMidYMid meet" viewBox="0 0 24 24" width="24" height="24"><defs><path d="M3.56 12.79L3.56 22.14" id="ahWZbR4I3"></path><path d="M9.24 15.9L9.24 22.14" id="a934aHn3H"></path><path d="M14.79 12.79L14.79 22.14" id="eWJKFbHYy"></path><path d="M20.44 8.08L20.44 22.14" id="aN5PyA4rI"></path><path d="M22.23 1.17C18.81 4.51 16.67 6.59 15.81 7.43C15.05 8.17 14.21 8.84 13.31 9.41C12.46 9.96 12.5 9.93 11.96 10.28C10.18 11.43 7.92 11.5 6.07 10.46C5.63 10.22 6 10.43 5.23 10C4.35 9.51 3.56 8.87 2.88 8.13C2.69 7.92 2.23 7.4 1.48 6.58" id="a6VEZ0SPxD"></path></defs><g><g><g><g><use xlink:href="#ahWZbR4I3" opacity="1" fill-opacity="0" stroke="#dee5ed" stroke-width="4" stroke-opacity="1"></use></g></g><g><g><use xlink:href="#a934aHn3H" opacity="1" fill-opacity="0" stroke="#dee5ed" stroke-width="4" stroke-opacity="1"></use></g></g><g><g><use xlink:href="#eWJKFbHYy" opacity="1" fill-opacity="0" stroke="#dee5ed" stroke-width="4" stroke-opacity="1"></use></g></g><g><g><use xlink:href="#aN5PyA4rI" opacity="1" fill-opacity="0" stroke="#dee5ed" stroke-width="4" stroke-opacity="1"></use></g></g><g><g><use xlink:href="#a6VEZ0SPxD" opacity="1" fill-opacity="0" stroke="#dee5ed" stroke-width="2" stroke-opacity="1"></use></g></g></g></g></svg>