<?xml version="1.0" encoding="UTF-8" standalone="no"?>
<!DOCTYPE svg PUBLIC "-//W3C//DTD SVG 1.1//EN" "http://www.w3.org/Graphics/SVG/1.1/DTD/svg11.dtd">
<svg version="1.1" xmlns="http://www.w3.org/2000/svg" xmlns:xlink="http://www.w3.org/1999/xlink" preserveAspectRatio="xMidYMid meet" viewBox="0 0 24 24" width="24" height="24"><defs><path d="M17.07 1.95C17.59 1.95 18.08 2.18 18.42 2.57C18.93 3.19 20.23 4.72 22.3 7.17C22.3 15.23 22.3 20.28 22.3 22.29C22.3 22.5 22.13 22.67 21.92 22.67C17.85 22.67 6.02 22.67 1.95 22.67C1.74 22.67 1.58 22.5 1.58 22.29C1.58 18.22 1.58 6.39 1.58 2.32C1.58 2.12 1.74 1.95 1.95 1.95C5.14 1.95 13.97 1.95 17.07 1.95Z" id="a1esxRtfm2"></path><path d="M5.58 4.59L16.08 4.59L16.08 9.81L5.58 9.81L5.58 4.59Z" id="nDtWUtxjp"></path><path d="M13.14 8.45L13.14 5.89" id="drsaJsMpM"></path><path d="M18.93 12.57C19.04 12.57 19.12 12.66 19.12 12.77C19.12 14.22 19.12 18.3 19.12 19.73C19.12 19.89 19 20.01 18.84 20.01C16.05 20.01 7.98 20.01 5.2 20.01C5.02 20.01 4.87 19.87 4.87 19.69C4.87 18.26 4.87 14.2 4.87 12.74C4.87 12.65 4.95 12.57 5.04 12.57C7.86 12.57 16.12 12.57 18.93 12.57Z" id="h4trfcGPJ"></path><path d="M17.01 15.32L7.17 15.32" id="j1RcRbeu2c"></path><path d="M17.01 17.45L7.17 17.45" id="b1sfoP4wjH"></path></defs><g><g><g><g><use xlink:href="#a1esxRtfm2" opacity="1" fill-opacity="0" stroke="#dee5ed" stroke-width="2" stroke-opacity="1"></use></g></g><g><g><use xlink:href="#nDtWUtxjp" opacity="1" fill-opacity="0" stroke="#dee5ed" stroke-width="1.5" stroke-opacity="1"></use></g></g><g><g><use xlink:href="#drsaJsMpM" opacity="1" fill-opacity="0" stroke="#dee5ed" stroke-width="2" stroke-opacity="1"></use></g></g><g><g><use xlink:href="#h4trfcGPJ" opacity="1" fill-opacity="0" stroke="#dee5ed" stroke-width="2" stroke-opacity="1"></use></g></g><g><g><use xlink:href="#j1RcRbeu2c" opacity="1" fill-opacity="0" stroke="#dee5ed" stroke-width="1" stroke-opacity="1"></use></g></g><g><g><use xlink:href="#b1sfoP4wjH" opacity="1" fill-opacity="0" stroke="#dee5ed" stroke-width="1" stroke-opacity="1"></use></g></g></g></g></svg>