<?xml version="1.0" encoding="UTF-8" standalone="no"?>
<!DOCTYPE svg PUBLIC "-//W3C//DTD SVG 1.1//EN" "http://www.w3.org/Graphics/SVG/1.1/DTD/svg11.dtd">
<svg version="1.1" xmlns="http://www.w3.org/2000/svg" xmlns:xlink="http://www.w3.org/1999/xlink" preserveAspectRatio="xMidYMid meet" viewBox="0 0 24 24" width="24" height="24"><defs><path d="M21.53 12.89C21.97 12.89 22.23 13.38 21.98 13.75C21.29 14.78 19.57 17.36 16.8 21.49L3.54 21.49C6.24 17.26 7.92 14.61 8.6 13.56C8.86 13.14 9.32 12.89 9.81 12.89C12.36 12.89 19.03 12.89 21.53 12.89Z" id="b2pRykpHY"></path><path d="M4.02 21.49L1.17 21.49C1.28 12.68 1.34 7.17 1.36 4.97C1.37 4.34 1.89 3.83 2.52 3.83C4.07 3.83 7.78 3.83 9.38 3.83C9.86 3.83 10.24 4.21 10.24 4.69C10.24 5.19 10.24 5.85 10.24 6.35C10.24 6.82 10.63 7.2 11.1 7.19C12.78 7.15 16.51 7.07 18.07 7.04C18.86 7.02 19.51 7.65 19.51 8.44C19.51 9.04 19.51 10.52 19.51 12.89" id="e3J3eTLjjz"></path></defs><g><g><g><use xlink:href="#b2pRykpHY" opacity="1" fill="#dee5ed" fill-opacity="1"></use><g><use xlink:href="#b2pRykpHY" opacity="1" fill-opacity="0" stroke="#dee5ed" stroke-width="1.5" stroke-opacity="1"></use></g></g><g><g><use xlink:href="#e3J3eTLjjz" opacity="1" fill-opacity="0" stroke="#dee5ed" stroke-width="1.5" stroke-opacity="1"></use></g></g></g></g></svg>